<!-- Generated by IcoMoon.io -->
<svg version="1.1" xmlns="http://www.w3.org/2000/svg" width="512" height="512" viewBox="0 0 512 512">
<title></title>
<g id="icomoon-ignore">
</g>
<path d="M512 256v0 0c0 75.8-33 144-85.4 190.8-65.7 32-126.9 9.6-147.1-4.4 64.5-14.1 113.2-92.1 113.2-186.4s-48.7-172.3-113.2-186.5c20.3-14 81.5-36.4 147.1-4.4 52.4 46.9 85.4 115.1 85.4 190.9v0 0z"></path>
<path d="M171.7 111.7c-28.3 33.4-46.6 82.8-47.8 138.3 0 0.1 0 11.9 0 12.1 1.2 55.4 19.6 104.8 47.9 138.2 36.7 47.7 91.3 77.9 152.3 77.9 37.5 0 72.6-11.4 102.6-31.3-45.4 40.5-105.2 65.1-170.7 65.1-4.1 0-8.2-0.1-12.2-0.3-135.7-6.4-243.8-118.4-243.8-255.7 0-141.4 114.6-256 256-256 0.3 0 0.6 0 1 0 65.2 0.2 124.6 24.8 169.7 65.2-30-19.9-65.1-31.4-102.6-31.4-61 0-115.6 30.2-152.4 77.9z"></path>
</svg>
