<!-- Generated by IcoMoon.io -->
<svg version="1.1" xmlns="http://www.w3.org/2000/svg" width="512" height="512" viewBox="0 0 512 512">
<title></title>
<g id="icomoon-ignore">
</g>
<path d="M256 0c-141.4 0-256 114.6-256 256s114.6 256 256 256 256-114.6 256-256-114.6-256-256-256zM479.2 236.4l-0.5-5.3c0.1 1.8 0.3 3.5 0.5 5.3zM444.2 134.4l-3.6-5.4c1.2 1.8 2.4 3.6 3.6 5.4zM430.3 115.3l-2.2-2.7c0.8 0.9 1.5 1.8 2.2 2.7zM399.3 83.8l-2.7-2.2c1 0.8 1.8 1.5 2.7 2.2zM383 71.4l-5.4-3.6c1.8 1.2 3.6 2.4 5.4 3.6zM280.9 33.4l-5.4-0.5c1.8 0.1 3.6 0.3 5.4 0.5zM236.4 32.8l-5.4 0.5c1.8-0.1 3.6-0.3 5.4-0.5zM134.4 67.8l-5.4 3.6c1.8-1.2 3.6-2.4 5.4-3.6zM115.3 81.7l-2.6 2.1c0.9-0.7 1.7-1.4 2.6-2.1zM83.8 112.7l-2.2 2.7c0.8-0.9 1.5-1.8 2.2-2.7zM71.4 129l-3.6 5.4c1.2-1.8 2.4-3.6 3.6-5.4zM33.4 231.1l-0.5 5.4c0.1-1.8 0.3-3.6 0.5-5.4zM32.8 275.6l0.5 5.4c-0.1-1.8-0.3-3.6-0.5-5.4zM67.8 377.5l3.6 5.4c-1.2-1.7-2.4-3.5-3.6-5.4zM72 383.8l39.9-26.7-4.4-6.7-39.9 26.7c-18.1-28.1-30-60.4-34-95.2l23.9-2.4-0.8-8-23.9 2.4c-0.4-4.6-0.6-9.3-0.7-14h48v-8h-48c0.1-4.7 0.3-9.3 0.7-14l23.9 2.3 0.8-8-23.9-2.3c4-34.8 16-67.1 34.1-95.2l39.9 26.7 4.4-6.7-40-26.5c2.7-3.8 5.4-7.6 8.3-11.2l18.5 15.2 5.1-6.2-18.5-15.2c3-3.6 6.2-7 9.4-10.4l33.9 33.9 5.7-5.7-33.9-33.9c3.4-3.2 6.8-6.4 10.3-9.4l15.2 18.6 6.2-5.1-15.2-18.5c3.7-2.9 7.4-5.7 11.2-8.4l26.7 39.9 6.7-4.4-26.7-39.9c28.1-18.1 60.4-30 95.2-34l2.4 23.9 8-0.8-2.4-23.9c4.6-0.4 9.3-0.6 14-0.7v48h8v-48c4.7 0.1 9.3 0.3 14 0.7l-2.3 23.9 8 0.8 2.3-23.9c34.8 4 67.1 16 95.2 34.1l-26.7 39.9 6.7 4.4 26.7-39.9c3.8 2.7 7.6 5.4 11.2 8.3l-15.2 18.5 6.2 5.1 15.2-18.5c3.6 3 7 6.2 10.4 9.4l-12.8 12.5-175 116.7-116.7 175-12.5 12.5c-3.2-3.4-6.4-6.8-9.4-10.3l18.5-15.2-5.1-6.2-18.5 15.2c-2.9-3.6-5.6-7.4-8.3-11.2zM83.8 399.3c-0.7-0.9-1.4-1.7-2.1-2.6l2.1 2.6zM112.7 428.2l2.6 2.1c-0.9-0.7-1.7-1.4-2.6-2.1zM129 440.5l5.4 3.6c-1.8-1.1-3.6-2.3-5.4-3.6zM231.1 478.6l5.4 0.5c-1.8-0.1-3.6-0.3-5.4-0.5zM275.6 479.2l5.3-0.5c-1.8 0.1-3.5 0.3-5.3 0.5zM377.6 444.2l5.4-3.6c-1.8 1.2-3.6 2.4-5.4 3.6zM396.7 430.3l2.7-2.2c-0.9 0.8-1.8 1.5-2.7 2.2zM414.2 414.6l0.4-0.4c-0.1 0.1-0.3 0.3-0.4 0.4zM428.2 399.3l2.2-2.7c-0.8 0.9-1.5 1.8-2.2 2.7zM431.7 395l-18.5-15.2-5.1 6.2 18.5 15.2c-3 3.6-6.2 7-9.4 10.4l-33.9-33.9-5.7 5.7 33.9 33.9c-3.4 3.2-6.8 6.4-10.3 9.4l-15.2-18.6-6.2 5.1 15.2 18.5c-3.7 2.9-7.4 5.7-11.2 8.4l-26.7-39.9-6.7 4.4 26.7 39.9c-28.1 18.1-60.4 30-95.2 34l-2.4-23.9-8 0.8 2.4 23.9c-4.6 0.4-9.3 0.6-14 0.7v-48h-8v48c-4.7-0.1-9.3-0.3-14-0.7l2.3-23.9-8-0.8-2.3 23.9c-34.8-4-67.1-16-95.2-34.1l26.7-39.9-6.7-4.4-26.5 39.9c-3.8-2.7-7.6-5.4-11.2-8.3l15.2-18.5-6.2-5.1-15.2 18.5c-3.6-3-7-6.2-10.4-9.4l12.6-12.5 175-116.7 116.7-175 12.5-12.5c3.2 3.4 6.4 6.8 9.4 10.3l-18.5 15.2 5.1 6.2 18.5-15.2c2.9 3.7 5.7 7.4 8.4 11.2l-39.9 26.7 4.4 6.7 39.9-26.7c18.1 28.1 30 60.4 34 95.2l-23.9 2.4 0.8 8 23.9-2.4c0.4 4.6 0.6 9.3 0.7 14h-48v8h48c-0.1 4.7-0.3 9.3-0.7 14l-23.9-2.3-0.8 8 23.9 2.3c-4 34.8-16 67.1-34.1 95.2l-39.9-26.7-4.4 6.7 39.9 26.7c-2.6 3.6-5.4 7.3-8.3 11zM479.2 275.5c-0.2 1.8-0.3 3.6-0.5 5.4l0.5-5.4zM444.2 377.6c-1.2 1.8-2.4 3.6-3.6 5.4l3.6-5.4z"></path>
<path d="M216.268 35.538l9.365 47.078-7.846 1.561-9.365-47.078 7.846-1.561z"></path>
<path d="M295.828 476.475l-9.365-47.079 7.846-1.561 9.365 47.079-7.846 1.561z"></path>
<path d="M194.814 40.445l6.97 22.965-7.655 2.323-6.97-22.965 7.655-2.323z"></path>
<path d="M317.217 471.443l-6.969-22.966 7.655-2.323 6.969 22.966-7.655 2.323z"></path>
<path d="M174.007 47.55l18.369 44.347-7.391 3.061-18.369-44.347 7.391-3.062z"></path>
<path d="M338.062 464.483l-18.37-44.347 7.391-3.062 18.37 44.347-7.391 3.062z"></path>
<path d="M146.81 60.33l7.055-3.772 11.316 21.166-7.055 3.772-11.316-21.166z"></path>
<path d="M365.050 451.644l-7.055 3.772-11.316-21.166 7.055-3.772 11.316 21.166z"></path>
<path d="M60.3 146.913l21.168 11.311-3.77 7.056-21.168-11.311 3.77-7.056z"></path>
<path d="M451.622 365.098l-21.168-11.311 3.771-7.056 21.168 11.311-3.771 7.056z"></path>
<path d="M91.906 192.311l-44.347-18.369 3.062-7.391 44.347 18.369-3.061 7.391z"></path>
<path d="M420.16 319.651l44.347 18.37-3.062 7.391-44.347-18.37 3.062-7.391z"></path>
<path d="M42.772 187.194l22.968 6.965-2.322 7.656-22.968-6.965 2.322-7.656z"></path>
<path d="M469.154 324.834l-22.968-6.965 2.322-7.656 22.968 6.965-2.322 7.656z"></path>
<path d="M37.035 208.391l47.078 9.365-1.561 7.846-47.078-9.365 1.561-7.846z"></path>
<path d="M474.87 303.622l-47.079-9.365 1.561-7.846 47.079 9.365-1.561 7.846z"></path>
<path d="M35.483 295.774l47.079-9.365 1.561 7.846-47.078 9.365-1.561-7.846z"></path>
<path d="M476.421 216.214l-47.079 9.365-1.561-7.846 47.079-9.365 1.561 7.846z"></path>
<path d="M40.487 317.257l22.965-6.969 2.323 7.655-22.965 6.969-2.323-7.655z"></path>
<path d="M471.485 194.853l-22.966 6.97-2.323-7.655 22.966-6.97 2.323 7.655z"></path>
<path d="M50.571 345.456l-3.062-7.391 44.347-18.37 3.061 7.391-44.347 18.37z"></path>
<path d="M461.397 166.615l3.061 7.391-44.347 18.365-3.061-7.391 44.347-18.365z"></path>
<path d="M60.412 365.134l-3.772-7.055 21.165-11.316 3.772 7.055-21.166 11.316z"></path>
<path d="M451.728 146.893l3.772 7.055-21.166 11.316-3.772-7.055 21.166-11.316z"></path>
<path d="M153.939 455.423l-7.055-3.771 11.314-21.166 7.055 3.771-11.314 21.166z"></path>
<path d="M358.036 56.537l7.056 3.77-11.311 21.168-7.056-3.77 11.311-21.168z"></path>
<path d="M166.633 461.399l18.369-44.347 7.391 3.062-18.369 44.347-7.391-3.062z"></path>
<path d="M345.442 50.555l-18.37 44.347-7.391-3.061 18.37-44.347 7.391 3.062z"></path>
<path d="M194.817 471.514l-7.655-2.322 6.967-22.966 7.655 2.322-6.967 22.966z"></path>
<path d="M317.175 40.441l7.656 2.321-6.962 22.968-7.656-2.321 6.962-22.968z"></path>
<path d="M216.236 476.42l-7.846-1.561 9.365-47.079 7.846 1.561-9.365 47.079z"></path>
<path d="M295.768 35.484l7.846 1.561-9.365 47.078-7.846-1.561 9.365-47.078z"></path>
</svg>
